<!-- <svg xmlns="http://www.w3.org/2000/svg" version="1.0" viewBox="0 0 375 375">
  <path fill="#253a3c" d="M283.572 153.587c0-10.258-1.351-17.492-4.046-21.703-2.688-4.207-7.82-6.313-15.391-6.313-10.094 0-19.055 4.211-26.875 12.625-7.813 8.406-11.719 15.977-11.719 22.703v89.828H207.87v-97.14c0-10.258-1.351-17.492-4.047-21.703-2.687-4.207-8.406-6.313-17.156-6.313-8.742 0-17.023 4.04-24.844 12.11-7.824 8.074-12.074 15.562-12.75 22.468v90.578h-17.656V124.556h17.656v28.515c2.696-7.226 7.66-13.953 14.891-20.172 7.238-6.226 15.313-9.343 24.219-9.343 8.914 0 16.023.804 21.328 2.406 5.3 1.594 9.047 4.074 11.234 7.437 2.188 3.368 3.532 6.309 4.032 8.828.507 2.524.765 6.055.765 10.594 2.688-7.226 7.563-13.91 14.625-20.047 7.063-6.144 14.63-9.218 22.703-9.218 8.082 0 14.563.671 19.438 2.015 4.875 1.344 8.531 2.86 10.969 4.547 2.445 1.68 4.3 4.117 5.562 7.313 1.258 3.199 1.973 5.808 2.14 7.828.165 2.023.25 4.883.25 8.578v78.969c0 4.886.97 8.632 2.907 11.234 1.937 2.605 3.91 3.996 5.922 4.172l2.781.5h7.828v2.015h-15.39c-6.899 0-12.157-1.507-15.782-4.53-3.617-3.032-5.508-6.063-5.672-9.095l-.25-4.296Zm54.748 98.156c-2.187 0-4.085-.797-5.687-2.39-1.594-1.602-2.39-3.54-2.39-5.813 0-2.27.753-4.16 2.265-5.672 1.52-1.52 3.414-2.281 5.688-2.281 2.27 0 4.203.805 5.797 2.406 1.601 1.594 2.406 3.484 2.406 5.672 0 2.187-.805 4.086-2.406 5.687-1.594 1.594-3.485 2.391-5.672 2.391Zm0 0"/>
  <path fill="#f9f5f3" d="M71.147 126.38c22.23 0 38.695 6.3 49.39 18.906 3.805 4.508 6.891 10.508 9.266 18 2.375 7.488 3.563 16.582 3.563 27.281 0 10.696-1.75 20.29-5.25 28.781-3.508 8.5-8.297 15.067-14.36 19.704-11.757 8.675-25.96 13.015-42.609 13.015-4.75 0-9.379-.386-13.89-1.156-4.52-.773-7.91-1.574-10.172-2.406l-3.203-1.25.53-1.782c8.087 3.208 16.997 4.813 26.735 4.813 12.606 0 23.125-4.102 31.563-12.297 6.418-6.062 10.933-14.976 13.547-26.734 1.542-6.657 2.312-14.805 2.312-24.438 0-9.625-1.363-18.511-4.094-26.656-2.726-8.137-5.847-14.168-9.36-18.094-3.507-3.918-7.757-7.039-12.75-9.36-4.987-2.312-8.968-3.651-11.937-4.015-2.976-.355-6.578-.531-10.796-.531-4.22 0-9 .414-14.344 1.25-5.352.832-9.395 1.61-12.125 2.328l-4.094 1.25-.547-1.797c9.043-3.21 19.918-4.812 32.625-4.812Zm0 0"/>
</svg>
 -->
<svg xmlns="http://www.w3.org/2000/svg" version="1.0" viewBox="38.52 123.56 307.88 128.51">
<path fill="#253a3c" d="M283.572 153.587c0-10.258-1.351-17.492-4.046-21.703-2.688-4.207-7.82-6.313-15.391-6.313-10.094 0-19.055 4.211-26.875 12.625-7.813 8.406-11.719 15.977-11.719 22.703v89.828H207.87v-97.14c0-10.258-1.351-17.492-4.047-21.703-2.687-4.207-8.406-6.313-17.156-6.313-8.742 0-17.023 4.04-24.844 12.11-7.824 8.074-12.074 15.562-12.75 22.468v90.578h-17.656V124.556h17.656v28.515c2.696-7.226 7.66-13.953 14.891-20.172 7.238-6.226 15.313-9.343 24.219-9.343 8.914 0 16.023.804 21.328 2.406 5.3 1.594 9.047 4.074 11.234 7.437 2.188 3.368 3.532 6.309 4.032 8.828.507 2.524.765 6.055.765 10.594 2.688-7.226 7.563-13.91 14.625-20.047 7.063-6.144 14.63-9.218 22.703-9.218 8.082 0 14.563.671 19.438 2.015 4.875 1.344 8.531 2.86 10.969 4.547 2.445 1.68 4.3 4.117 5.562 7.313 1.258 3.199 1.973 5.808 2.14 7.828.165 2.023.25 4.883.25 8.578v78.969c0 4.886.97 8.632 2.907 11.234 1.937 2.605 3.91 3.996 5.922 4.172l2.781.5h7.828v2.015h-15.39c-6.899 0-12.157-1.507-15.782-4.53-3.617-3.032-5.508-6.063-5.672-9.095l-.25-4.296Zm54.748 98.156c-2.187 0-4.085-.797-5.687-2.39-1.594-1.602-2.39-3.54-2.39-5.813 0-2.27.753-4.16 2.265-5.672 1.52-1.52 3.414-2.281 5.688-2.281 2.27 0 4.203.805 5.797 2.406 1.601 1.594 2.406 3.484 2.406 5.672 0 2.187-.805 4.086-2.406 5.687-1.594 1.594-3.485 2.391-5.672 2.391Zm0 0"></path>
<path fill="#f9f5f3" d="M71.147 126.38c22.23 0 38.695 6.3 49.39 18.906 3.805 4.508 6.891 10.508 9.266 18 2.375 7.488 3.563 16.582 3.563 27.281 0 10.696-1.75 20.29-5.25 28.781-3.508 8.5-8.297 15.067-14.36 19.704-11.757 8.675-25.96 13.015-42.609 13.015-4.75 0-9.379-.386-13.89-1.156-4.52-.773-7.91-1.574-10.172-2.406l-3.203-1.25.53-1.782c8.087 3.208 16.997 4.813 26.735 4.813 12.606 0 23.125-4.102 31.563-12.297 6.418-6.062 10.933-14.976 13.547-26.734 1.542-6.657 2.312-14.805 2.312-24.438 0-9.625-1.363-18.511-4.094-26.656-2.726-8.137-5.847-14.168-9.36-18.094-3.507-3.918-7.757-7.039-12.75-9.36-4.987-2.312-8.968-3.651-11.937-4.015-2.976-.355-6.578-.531-10.796-.531-4.22 0-9 .414-14.344 1.25-5.352.832-9.395 1.61-12.125 2.328l-4.094 1.25-.547-1.797c9.043-3.21 19.918-4.812 32.625-4.812Zm0 0"></path>
</svg>